
<svg xmlns="http://www.w3.org/2000/svg" xmlns:xlink="http://www.w3.org/1999/xlink" width="174" height="41" viewBox="0 0 174 41">
  <defs>
    <clipPath id="clip-path">
      <rect id="Rectangle_1130" data-name="Rectangle 1130" width="174" height="41" transform="translate(-16815 -19084)" fill="#fff"/>
    </clipPath>
    <filter id="Subtraction_16" x="-11.813" y="6.801" width="198.623" height="54.242" filterUnits="userSpaceOnUse">
      <feOffset dy="4" input="SourceAlpha"/>
      <feGaussianBlur stdDeviation="5" result="blur"/>
      <feFlood flood-opacity="0.259"/>
      <feComposite operator="in" in2="blur"/>
      <feComposite in="SourceGraphic"/>
    </filter>
  </defs>
  <g id="Mask_Group_10" data-name="Mask Group 10" transform="translate(16815 19084)" clip-path="url(#clip-path)">
    <g transform="matrix(1, 0, 0, 1, -16815, -19084)" filter="url(#Subtraction_16)">
      <g id="Subtraction_16-2" data-name="Subtraction 16" transform="translate(3.19 17.8)" fill="#000000">
        <path d="M 158.6643218994141 23.74307441711426 L 10.34774303436279 23.74307441711426 C 20.8801441192627 21.70120620727539 29.66680526733398 16.8751220703125 37.64142990112305 12.49499034881592 L 37.64768218994141 12.49155330657959 C 39.98647308349609 11.20697021484375 42.19466018676758 9.994115829467773 44.32915878295898 8.922199249267578 C 49.31768035888672 6.416928291320801 54.54945373535156 4.526115894317627 60.32345199584961 3.141740798950195 C 67.63470458984375 1.388803243637085 75.78662109375 0.4999907612800598 84.55274200439453 0.4999907612800598 C 93.39143371582031 0.4999907612800598 101.1702423095703 1.363803267478943 108.3337020874023 3.140803337097168 C 113.7823486328125 4.492428302764893 118.7246170043945 6.329511642456055 123.8872833251953 8.922199249267578 C 125.8398513793945 9.902782440185547 127.8771362304688 11.00155353546143 130.0340576171875 12.16482448577881 C 138.0355682373047 16.48028564453125 147.5562591552734 21.61519813537598 158.6643218994141 23.74307441711426 Z" stroke="none"/>
        <path d="M 154.2445068359375 23.24307632446289 C 144.9052276611328 20.75308227539063 136.7751617431641 16.36860275268555 129.7966003417969 12.60483646392822 C 127.6430206298828 11.44335842132568 125.60888671875 10.34631538391113 123.6628875732422 9.369010925292969 C 118.5341949462891 6.793380260467529 113.6249771118164 4.968532562255859 108.2133026123047 3.626097679138184 C 101.0898056030273 1.859010696411133 93.35036468505859 1.00001072883606 84.552734375 1.00001072883606 C 75.82575988769531 1.00001072883606 67.71308898925781 1.884184598922729 60.44002151489258 3.627945423126221 C 54.70388793945313 5.003271579742432 49.50736618041992 6.881184577941895 44.55354309082031 9.369010925292969 C 42.42647552490234 10.43722820281982 40.2219123840332 11.64809799194336 37.88901901245117 12.92944526672363 L 37.88212966918945 12.93324947357178 C 30.96747970581055 16.73117637634277 23.44568634033203 20.86262321472168 14.69908046722412 23.24307632446289 L 154.2445068359375 23.24307632446289 M 168.623779296875 24.24307632446289 L -1.655910295994545e-06 24.24307632446289 C 15.2152156829834 24.2422924041748 27.00171661376953 17.76848983764648 37.40071487426758 12.05675029754639 L 37.40647506713867 12.05357551574707 C 39.74917221069336 10.76683712005615 41.96160888671875 9.551662445068359 44.10475921630859 8.475379943847656 C 49.128173828125 5.952597618103027 54.39523696899414 4.048923969268799 60.20686721801758 2.655510663986206 C 67.55621337890625 0.8934454917907715 75.74732208251953 1.070105554390466e-05 84.552734375 1.070105554390466e-05 C 93.43260955810547 1.070105554390466e-05 101.2508010864258 0.8686411380767822 108.4540634155273 2.655510663986206 C 113.939697265625 4.016293525695801 118.9150238037109 5.86561918258667 124.1116714477539 8.475379943847656 C 126.0711288452148 9.459424018859863 128.1119689941406 10.56011962890625 130.2726135253906 11.72540187835693 C 140.5211029052734 17.25275039672852 153.2734375 24.13046646118164 168.623779296875 24.24168395996094 L 168.623779296875 24.24307632446289 Z" stroke="none" fill="#575757"/>
      </g>
    </g>
  </g>
</svg>
