<svg xmlns="http://www.w3.org/2000/svg" width="822.996" height="540.032" viewBox="0 0 822.996 540.032">
  <g id="Union_7" data-name="Union 7" transform="translate(-1854.002 15)" fill="none">
    <path d="M2526.753,521.452l-38.4-68.585H1892a38,38,0,0,1-38-38V23a38,38,0,0,1,38-38h747a38,38,0,0,1,38,38V414.868a38,38,0,0,1-38,38H2577.37l-38.4,68.585a7,7,0,0,1-12.216,0Z" stroke="none"/>
    <path d="M 2532.860595703125 524.0321044921875 C 2535.06298828125 524.0321044921875 2537.02001953125 522.8848876953125 2538.095947265625 520.9633178710938 L 2576.4970703125 452.37890625 L 2576.783447265625 451.8674621582031 L 2577.36962890625 451.8674621582031 L 2638.998046875 451.8674621582031 C 2643.99365234375 451.8674621582031 2648.8388671875 450.8893432617188 2653.39990234375 448.9601135253906 C 2657.8056640625 447.0966796875 2661.7626953125 444.4285583496094 2665.160888671875 441.0302429199219 C 2668.559326171875 437.6318969726563 2671.227294921875 433.6748962402344 2673.090576171875 429.2690124511719 C 2675.019775390625 424.7082214355469 2675.997802734375 419.8628845214844 2675.997802734375 414.8675537109375 L 2675.997802734375 23.00045585632324 C 2675.997802734375 18.0050106048584 2675.019775390625 13.15945529937744 2673.090576171875 8.598455429077148 C 2671.227294921875 4.192566394805908 2668.559326171875 0.2354552149772644 2665.160888671875 -3.162989139556885 C 2661.7626953125 -6.561433792114258 2657.8056640625 -9.229434013366699 2653.39990234375 -11.09298896789551 C 2648.8388671875 -13.0222110748291 2643.99365234375 -14.00032234191895 2638.998046875 -14.00032234191895 L 1892.001586914063 -14.00032234191895 C 1887.006225585938 -14.00032234191895 1882.16064453125 -13.0222110748291 1877.599731445313 -11.09298896789551 C 1873.193969726563 -9.229434013366699 1869.236938476563 -6.561433792114258 1865.838745117188 -3.162989139556885 C 1862.4404296875 0.2353440970182419 1859.772583007813 4.192566394805908 1857.908935546875 8.598455429077148 C 1855.97998046875 13.15945529937744 1855.001831054688 18.0050106048584 1855.001831054688 23.00045585632324 L 1855.001831054688 414.8675537109375 C 1855.001831054688 419.8628845214844 1855.97998046875 424.7082214355469 1857.908935546875 429.2690124511719 C 1859.772583007813 433.6748962402344 1862.4404296875 437.6318969726563 1865.838745117188 441.0302429199219 C 1869.236938476563 444.4286804199219 1873.193969726563 447.0966796875 1877.599731445313 448.9601135253906 C 1882.160766601563 450.8893432617188 1887.006225585938 451.8674621582031 1892.001586914063 451.8674621582031 L 2488.3515625 451.8674621582031 L 2488.937744140625 451.8674621582031 L 2489.22412109375 452.37890625 L 2527.625 520.9632568359375 C 2528.701416015625 522.8848876953125 2530.658447265625 524.0321044921875 2532.860595703125 524.0321044921875 M 2532.860595703125 525.0321044921875 C 2530.474853515625 525.0321044921875 2528.08935546875 523.8386840820313 2526.752685546875 521.451904296875 L 2488.3515625 452.8674621582031 L 1892.001586914063 452.8674621582031 C 1871.014526367188 452.8674621582031 1854.001831054688 435.8537902832031 1854.001831054688 414.8675537109375 L 1854.001831054688 23.00045585632324 C 1854.001831054688 2.013344049453735 1871.014526367188 -15.00032234191895 1892.001586914063 -15.00032234191895 L 2638.998046875 -15.00032234191895 C 2659.985107421875 -15.00032234191895 2676.997802734375 2.013344049453735 2676.997802734375 23.00045585632324 L 2676.997802734375 414.8675537109375 C 2676.997802734375 435.8537902832031 2659.985107421875 452.8674621582031 2638.998046875 452.8674621582031 L 2577.36962890625 452.8674621582031 L 2538.968505859375 521.451904296875 C 2537.632080078125 523.8386840820313 2535.246337890625 525.0321044921875 2532.860595703125 525.0321044921875 Z" stroke="none" fill="#707070"/>
  </g>
</svg>
