<svg xmlns="http://www.w3.org/2000/svg" width="20.048" height="13.365" viewBox="0 0 20.048 13.365">
  <g id="mail" transform="translate(0 -85.333)">
    <g id="Group_1005" data-name="Group 1005" transform="translate(0 85.333)">
      <path id="Path_533" data-name="Path 533" d="M19.02,85.333H1.028A1.031,1.031,0,0,0,0,86.361V97.67A1.031,1.031,0,0,0,1.028,98.7H19.02a1.031,1.031,0,0,0,1.028-1.028V86.361A1.031,1.031,0,0,0,19.02,85.333Zm-.386.771-8.019,6.014a1.075,1.075,0,0,1-1.183,0L1.414,86.1Zm-4.283,6.411,4.369,5.4c0,.005.01.01.014.014H1.313c0-.005.01-.009.014-.014l4.369-5.4a.386.386,0,0,0-.6-.485L.771,97.375V86.586l8.2,6.149a1.84,1.84,0,0,0,2.108,0l8.2-6.149V97.375L14.95,92.03a.386.386,0,0,0-.6.485Z" transform="translate(0 -85.333)" fill="#fff"/>
    </g>
  </g>
</svg>
