<svg xmlns="http://www.w3.org/2000/svg" xmlns:xlink="http://www.w3.org/1999/xlink" width="89" height="89" viewBox="0 0 89 89">
  <defs>
    <clipPath id="clip-path">
      <rect id="Rectangle_1139" data-name="Rectangle 1139" width="89" height="89" transform="translate(-3392 1292)" fill="none"/>
    </clipPath>
  </defs>
  <g id="Mask_Group_1" data-name="Mask Group 1" transform="translate(3392 -1292)" clip-path="url(#clip-path)">
    <rect id="Rectangle_1138" data-name="Rectangle 1138" width="89" height="89" transform="translate(-3392 1292)" fill="none"/>
    <g id="Union_3" data-name="Union 3" transform="translate(-5880.502 846.768)">
      <path d="M 2532.860595703125 524.5321044921875 C 2530.47509765625 524.5321044921875 2528.354736328125 523.289306640625 2527.18896484375 521.2075805664063 L 2488.787841796875 452.6231079101563 L 2488.644775390625 452.3674011230469 L 2488.3515625 452.3674011230469 L 1892.001586914063 452.3674011230469 C 1886.938842773438 452.3674011230469 1882.02783203125 451.3760070800781 1877.404907226563 449.4205932617188 C 1872.939697265625 447.5318908691406 1868.92919921875 444.8279113769531 1865.485107421875 441.3837890625 C 1862.041015625 437.939697265625 1859.337158203125 433.92919921875 1857.448608398438 429.4638061523438 C 1855.493286132813 424.8410034179688 1854.501831054688 419.9302062988281 1854.501831054688 414.8676147460938 L 1854.501831054688 23.00040054321289 C 1854.501831054688 17.93759918212891 1855.493286132813 13.0265998840332 1857.448608398438 8.403599739074707 C 1859.337158203125 3.93809962272644 1862.041015625 -0.07240033894777298 1865.485107421875 -3.516600370407104 C 1868.92919921875 -6.960700511932373 1872.939697265625 -9.664800643920898 1877.404907226563 -11.55350017547607 C 1882.02783203125 -13.50890064239502 1886.938842773438 -14.50030040740967 1892.001586914063 -14.50030040740967 L 2638.998046875 -14.50030040740967 C 2644.060791015625 -14.50030040740967 2648.971923828125 -13.50890064239502 2653.5947265625 -11.55350017547607 C 2658.06005859375 -9.664800643920898 2662.070556640625 -6.960700511932373 2665.5146484375 -3.516600370407104 C 2668.95849609375 -0.07240033894777298 2671.66259765625 3.93809962272644 2673.55126953125 8.403599739074707 C 2675.50634765625 13.0265998840332 2676.497802734375 17.93759918212891 2676.497802734375 23.00040054321289 L 2676.497802734375 414.8676147460938 C 2676.497802734375 419.9302062988281 2675.50634765625 424.8410034179688 2673.55126953125 429.4638061523438 C 2671.66259765625 433.92919921875 2668.95849609375 437.939697265625 2665.5146484375 441.3837890625 C 2662.070556640625 444.8279113769531 2658.06005859375 447.5318908691406 2653.5947265625 449.4205932617188 C 2648.9716796875 451.3760070800781 2644.060791015625 452.3674011230469 2638.998046875 452.3674011230469 L 2577.36962890625 452.3674011230469 L 2577.07666015625 452.3674011230469 L 2576.933349609375 452.6231079101563 L 2538.5322265625 521.2075805664063 C 2537.36669921875 523.289306640625 2535.246337890625 524.5321044921875 2532.860595703125 524.5321044921875 Z" stroke="none"/>
      <path d="M 2532.860595703125 524.0321044921875 C 2535.06298828125 524.0321044921875 2537.02001953125 522.8848876953125 2538.095947265625 520.9633178710938 L 2576.4970703125 452.37890625 L 2576.783447265625 451.8674621582031 L 2577.36962890625 451.8674621582031 L 2638.998046875 451.8674621582031 C 2643.99365234375 451.8674621582031 2648.8388671875 450.8893432617188 2653.39990234375 448.9601135253906 C 2657.8056640625 447.0966796875 2661.7626953125 444.4285583496094 2665.160888671875 441.0302429199219 C 2668.559326171875 437.6318969726563 2671.227294921875 433.6748962402344 2673.090576171875 429.2690124511719 C 2675.019775390625 424.7082214355469 2675.997802734375 419.8628845214844 2675.997802734375 414.8675537109375 L 2675.997802734375 23.00045585632324 C 2675.997802734375 18.0050106048584 2675.019775390625 13.15945529937744 2673.090576171875 8.598455429077148 C 2671.227294921875 4.192566394805908 2668.559326171875 0.2354552149772644 2665.160888671875 -3.162989139556885 C 2661.7626953125 -6.561433792114258 2657.8056640625 -9.229434013366699 2653.39990234375 -11.09298896789551 C 2648.8388671875 -13.0222110748291 2643.99365234375 -14.00032234191895 2638.998046875 -14.00032234191895 L 1892.001586914063 -14.00032234191895 C 1887.006225585938 -14.00032234191895 1882.16064453125 -13.0222110748291 1877.599731445313 -11.09298896789551 C 1873.193969726563 -9.229434013366699 1869.236938476563 -6.561433792114258 1865.838745117188 -3.162989139556885 C 1862.4404296875 0.2353440970182419 1859.772583007813 4.192566394805908 1857.908935546875 8.598455429077148 C 1855.97998046875 13.15945529937744 1855.001831054688 18.0050106048584 1855.001831054688 23.00045585632324 L 1855.001831054688 414.8675537109375 C 1855.001831054688 419.8628845214844 1855.97998046875 424.7082214355469 1857.908935546875 429.2690124511719 C 1859.772583007813 433.6748962402344 1862.4404296875 437.6318969726563 1865.838745117188 441.0302429199219 C 1869.236938476563 444.4286804199219 1873.193969726563 447.0966796875 1877.599731445313 448.9601135253906 C 1882.160766601563 450.8893432617188 1887.006225585938 451.8674621582031 1892.001586914063 451.8674621582031 L 2488.3515625 451.8674621582031 L 2488.937744140625 451.8674621582031 L 2489.22412109375 452.37890625 L 2527.625 520.9632568359375 C 2528.701416015625 522.8848876953125 2530.658447265625 524.0321044921875 2532.860595703125 524.0321044921875 M 2532.860595703125 525.0321044921875 C 2530.474853515625 525.0321044921875 2528.08935546875 523.8386840820313 2526.752685546875 521.451904296875 L 2488.3515625 452.8674621582031 L 1892.001586914063 452.8674621582031 C 1871.014526367188 452.8674621582031 1854.001831054688 435.8537902832031 1854.001831054688 414.8675537109375 L 1854.001831054688 23.00045585632324 C 1854.001831054688 2.013344049453735 1871.014526367188 -15.00032234191895 1892.001586914063 -15.00032234191895 L 2638.998046875 -15.00032234191895 C 2659.985107421875 -15.00032234191895 2676.997802734375 2.013344049453735 2676.997802734375 23.00045585632324 L 2676.997802734375 414.8675537109375 C 2676.997802734375 435.8537902832031 2659.985107421875 452.8674621582031 2638.998046875 452.8674621582031 L 2577.36962890625 452.8674621582031 L 2538.968505859375 521.451904296875 C 2537.632080078125 523.8386840820313 2535.246337890625 525.0321044921875 2532.860595703125 525.0321044921875 Z" stroke="none" fill="#707070"/>
    </g>
  </g>
</svg>
